<svg width="99" height="68" viewBox="0 0 99 68" fill="none" xmlns="http://www.w3.org/2000/svg">
<path d="M89 34.25C89 38.5598 87.2879 42.693 84.2405 45.7405C81.193 48.788 77.0598 50.5 72.75 50.5H58.575L66.3 58.225L62.75 61.75L49 48L62.75 34.25L66.275 37.775L58.575 45.5H72.75C79 45.5 84 40.5 84 34.25C84 28 79 23 72.75 23H54V18H72.75C77.0598 18 81.193 19.712 84.2405 22.7595C87.2879 25.807 89 29.9402 89 34.25Z" fill="white"/>
<path d="M26.25 45H45V50H26.25C21.9402 50 17.807 48.2879 14.7595 45.2405C11.712 42.193 10 38.0598 10 33.75C10 29.4402 11.712 25.307 14.7595 22.2595C17.807 19.212 21.9402 17.5 26.25 17.5H40.425L32.7 9.775L36.25 6.25L50 20L36.25 33.75L32.725 30.225L40.425 22.5H26.25C20 22.5 15 27.5 15 33.75C15 40 20 45 26.25 45Z" fill="white"/>
</svg>
