<svg width="108" height="20" viewBox="0 0 108 20" fill="none" xmlns="http://www.w3.org/2000/svg">
<path d="M10.7213 2.49624C10.648 2.36996 10.5429 2.26514 10.4164 2.19227C10.2898 2.11941 10.1464 2.08105 10.0004 2.08105C9.85443 2.08105 9.711 2.11941 9.5845 2.19227C9.45799 2.26514 9.35284 2.36996 9.27959 2.49624L7.01792 6.39458C6.93959 6.52941 6.83198 6.64493 6.70303 6.73262C6.57409 6.82031 6.42711 6.87794 6.27292 6.90124L2.03376 7.54124C1.32209 7.64958 1.07209 8.54791 1.62709 9.00791L4.78459 11.6229C5.07626 11.8654 5.21376 12.2479 5.14292 12.6204L4.31709 16.9579C4.28776 17.112 4.30249 17.2712 4.35959 17.4172C4.41669 17.5633 4.51384 17.6902 4.63987 17.7835C4.76591 17.8768 4.91571 17.9327 5.07206 17.9447C5.22842 17.9566 5.38498 17.9243 5.52376 17.8512L9.51542 15.7496C9.66498 15.6709 9.83143 15.6298 10.0004 15.6298C10.1694 15.6298 10.3359 15.6709 10.4854 15.7496L14.4771 17.8512C14.6159 17.9243 14.7724 17.9566 14.9288 17.9447C15.0851 17.9327 15.2349 17.8768 15.361 17.7835C15.487 17.6902 15.5842 17.5633 15.6413 17.4172C15.6984 17.2712 15.7131 17.112 15.6838 16.9579L14.8579 12.6204C14.8229 12.4373 14.8377 12.2481 14.9007 12.0727C14.9638 11.8972 15.0727 11.7419 15.2163 11.6229L18.3746 9.00708C18.9288 8.54874 18.6788 7.64875 17.9663 7.54124L13.7288 6.90124C13.5744 6.87806 13.4273 6.82049 13.2982 6.73279C13.1691 6.64509 13.0613 6.52951 12.9829 6.39458L10.7213 2.49624Z" fill="#F3AF03"/>
<path d="M32.7213 2.49624C32.648 2.36996 32.5429 2.26514 32.4164 2.19227C32.2898 2.11941 32.1464 2.08105 32.0004 2.08105C31.8544 2.08105 31.711 2.11941 31.5845 2.19227C31.458 2.26514 31.3528 2.36996 31.2796 2.49624L29.0179 6.39458C28.9396 6.52941 28.832 6.64493 28.703 6.73262C28.5741 6.82031 28.4271 6.87794 28.2729 6.90124L24.0338 7.54124C23.3221 7.64958 23.0721 8.54791 23.6271 9.00791L26.7846 11.6229C27.0763 11.8654 27.2138 12.2479 27.1429 12.6204L26.3171 16.9579C26.2878 17.112 26.3025 17.2712 26.3596 17.4172C26.4167 17.5633 26.5138 17.6902 26.6399 17.7835C26.7659 17.8768 26.9157 17.9327 27.0721 17.9447C27.2284 17.9566 27.385 17.9243 27.5238 17.8512L31.5154 15.7496C31.665 15.6709 31.8314 15.6298 32.0004 15.6298C32.1694 15.6298 32.3359 15.6709 32.4854 15.7496L36.4771 17.8512C36.6159 17.9243 36.7724 17.9566 36.9288 17.9447C37.0851 17.9327 37.2349 17.8768 37.361 17.7835C37.487 17.6902 37.5842 17.5633 37.6413 17.4172C37.6984 17.2712 37.7131 17.112 37.6838 16.9579L36.8579 12.6204C36.8229 12.4373 36.8377 12.2481 36.9007 12.0727C36.9638 11.8972 37.0727 11.7419 37.2163 11.6229L40.3746 9.00708C40.9288 8.54874 40.6788 7.64875 39.9663 7.54124L35.7288 6.90124C35.5744 6.87806 35.4273 6.82049 35.2982 6.73279C35.1691 6.64509 35.0613 6.52951 34.9829 6.39458L32.7213 2.49624Z" fill="#F3AF03"/>
<path d="M54.7213 2.49624C54.648 2.36996 54.5429 2.26514 54.4164 2.19227C54.2898 2.11941 54.1464 2.08105 54.0004 2.08105C53.8544 2.08105 53.711 2.11941 53.5845 2.19227C53.458 2.26514 53.3528 2.36996 53.2796 2.49624L51.0179 6.39458C50.9396 6.52941 50.832 6.64493 50.703 6.73262C50.5741 6.82031 50.4271 6.87794 50.2729 6.90124L46.0338 7.54124C45.3221 7.64958 45.0721 8.54791 45.6271 9.00791L48.7846 11.6229C49.0763 11.8654 49.2138 12.2479 49.1429 12.6204L48.3171 16.9579C48.2878 17.112 48.3025 17.2712 48.3596 17.4172C48.4167 17.5633 48.5138 17.6902 48.6399 17.7835C48.7659 17.8768 48.9157 17.9327 49.0721 17.9447C49.2284 17.9566 49.385 17.9243 49.5238 17.8512L53.5154 15.7496C53.665 15.6709 53.8314 15.6298 54.0004 15.6298C54.1694 15.6298 54.3359 15.6709 54.4854 15.7496L58.4771 17.8512C58.6159 17.9243 58.7724 17.9566 58.9288 17.9447C59.0851 17.9327 59.2349 17.8768 59.361 17.7835C59.487 17.6902 59.5842 17.5633 59.6413 17.4172C59.6984 17.2712 59.7131 17.112 59.6838 16.9579L58.8579 12.6204C58.8229 12.4373 58.8377 12.2481 58.9007 12.0727C58.9638 11.8972 59.0727 11.7419 59.2163 11.6229L62.3746 9.00708C62.9288 8.54874 62.6788 7.64875 61.9663 7.54124L57.7288 6.90124C57.5744 6.87806 57.4273 6.82049 57.2982 6.73279C57.1691 6.64509 57.0613 6.52951 56.9829 6.39458L54.7213 2.49624Z" fill="#F3AF03"/>
<path d="M76.7213 2.49624C76.648 2.36996 76.5429 2.26514 76.4164 2.19227C76.2898 2.11941 76.1464 2.08105 76.0004 2.08105C75.8544 2.08105 75.711 2.11941 75.5845 2.19227C75.458 2.26514 75.3528 2.36996 75.2796 2.49624L73.0179 6.39458C72.9396 6.52941 72.832 6.64493 72.703 6.73262C72.5741 6.82031 72.4271 6.87794 72.2729 6.90124L68.0338 7.54124C67.3221 7.64958 67.0721 8.54791 67.6271 9.00791L70.7846 11.6229C71.0763 11.8654 71.2138 12.2479 71.1429 12.6204L70.3171 16.9579C70.2878 17.112 70.3025 17.2712 70.3596 17.4172C70.4167 17.5633 70.5138 17.6902 70.6399 17.7835C70.7659 17.8768 70.9157 17.9327 71.0721 17.9447C71.2284 17.9566 71.385 17.9243 71.5238 17.8512L75.5154 15.7496C75.665 15.6709 75.8314 15.6298 76.0004 15.6298C76.1694 15.6298 76.3359 15.6709 76.4854 15.7496L80.4771 17.8512C80.6159 17.9243 80.7724 17.9566 80.9288 17.9447C81.0851 17.9327 81.2349 17.8768 81.361 17.7835C81.487 17.6902 81.5842 17.5633 81.6413 17.4172C81.6984 17.2712 81.7131 17.112 81.6838 16.9579L80.8579 12.6204C80.8229 12.4373 80.8377 12.2481 80.9007 12.0727C80.9638 11.8972 81.0727 11.7419 81.2163 11.6229L84.3746 9.00708C84.9288 8.54874 84.6788 7.64875 83.9663 7.54124L79.7288 6.90124C79.5744 6.87806 79.4273 6.82049 79.2982 6.73279C79.1691 6.64509 79.0613 6.52951 78.9829 6.39458L76.7213 2.49624Z" fill="#F3AF03"/>
<path fill-rule="evenodd" clip-rule="evenodd" d="M96.7383 3.4284C97.3008 2.46007 98.6991 2.46007 99.2616 3.4284L100.982 6.39507C101.141 6.6684 101.416 6.85423 101.728 6.90173L104.587 7.3334C105.832 7.52173 106.268 9.09507 105.298 9.8984L103.216 11.6234C103.072 11.7424 102.963 11.8977 102.9 12.0732C102.837 12.2486 102.822 12.4378 102.857 12.6209L103.441 15.6842C103.669 16.8842 102.409 17.8159 101.328 17.2476L98.485 15.7501C98.3354 15.6714 98.1689 15.6303 98 15.6303C97.831 15.6303 97.6645 15.6714 97.515 15.7501L94.6716 17.2476C93.5908 17.8167 92.3308 16.8842 92.5591 15.6842L93.1425 12.6209C93.1775 12.4378 93.1627 12.2486 93.0996 12.0732C93.0366 11.8977 92.9276 11.7424 92.7841 11.6234L90.7008 9.8984C89.7316 9.09507 90.1675 7.52173 91.4141 7.3334L94.2725 6.90173C94.4267 6.87833 94.5737 6.82058 94.7027 6.73274C94.8316 6.6449 94.9392 6.52922 95.0175 6.39423L96.7383 3.4284ZM98.18 4.0559C98.1616 4.02443 98.1353 3.99831 98.1038 3.98016C98.0722 3.96201 98.0364 3.95246 98 3.95246C97.9635 3.95246 97.9277 3.96201 97.8962 3.98016C97.8646 3.99831 97.8383 4.02443 97.82 4.0559L96.0983 7.02257C95.926 7.31927 95.6892 7.5735 95.4055 7.76648C95.1218 7.95947 94.7984 8.08628 94.4591 8.13757L91.6008 8.56923C91.561 8.57522 91.5238 8.5926 91.4936 8.61928C91.4635 8.64596 91.4418 8.6808 91.431 8.71958C91.4203 8.75837 91.421 8.79943 91.4331 8.83782C91.4451 8.87621 91.4681 8.91027 91.4991 8.9359L93.5816 10.6609C93.8973 10.9225 94.1371 11.264 94.2759 11.6497C94.4147 12.0355 94.4475 12.4515 94.3708 12.8542L93.7875 15.9176C93.7801 15.9561 93.7838 15.9959 93.7981 16.0324C93.8124 16.0689 93.8366 16.1006 93.8681 16.124C93.8997 16.1473 93.9371 16.1613 93.9762 16.1643C94.0153 16.1672 94.0544 16.1592 94.0891 16.1409L96.9325 14.6442C97.2616 14.471 97.628 14.3804 98 14.3804C98.3719 14.3804 98.7383 14.471 99.0675 14.6442L101.911 16.1409C101.945 16.1592 101.985 16.1672 102.024 16.1643C102.063 16.1613 102.1 16.1473 102.132 16.124C102.163 16.1006 102.188 16.0689 102.202 16.0324C102.216 15.9959 102.22 15.9561 102.212 15.9176L101.629 12.8542C101.552 12.4515 101.585 12.0355 101.724 11.6497C101.863 11.264 102.103 10.9225 102.418 10.6609L104.502 8.9359C104.533 8.91022 104.556 8.87609 104.568 8.83764C104.58 8.79919 104.58 8.75807 104.569 8.71927C104.559 8.68046 104.537 8.64563 104.507 8.619C104.476 8.59238 104.439 8.57509 104.399 8.56923L101.541 8.13757C101.201 8.08619 100.878 7.95925 100.594 7.76612C100.311 7.57299 100.074 7.3186 99.9016 7.02173L98.18 4.0559Z" fill="#F3AF03"/>
</svg>
