<svg width="73" height="30" viewBox="0 0 73 30" fill="none" xmlns="http://www.w3.org/2000/svg">
<path d="M9.35055 29.6104C7.72055 29.6104 6.29055 29.2804 5.04055 28.6304C3.80055 27.9704 2.82055 27.0304 2.12055 25.7904C1.41055 24.5604 1.06055 23.1004 1.06055 21.4104V8.69043H5.91055V21.5904C5.91055 22.3004 6.05055 22.9304 6.32055 23.5004C6.59055 24.0704 6.99055 24.5204 7.51055 24.8504C8.03055 25.1804 8.64055 25.3504 9.35055 25.3504C10.0605 25.3504 10.6605 25.1804 11.1705 24.8504C11.6805 24.5204 12.0805 24.0704 12.3605 23.5004C12.6405 22.9304 12.7905 22.3004 12.7905 21.5904V8.69043H17.6405V21.5904C17.6405 22.3004 17.7805 22.9304 18.0505 23.5004C18.3205 24.0704 18.7205 24.5204 19.2405 24.8504C19.7605 25.1804 20.3705 25.3504 21.0805 25.3504C21.7905 25.3504 22.4005 25.1804 22.9205 24.8504C23.4405 24.5204 23.8405 24.0704 24.1105 23.5004C24.3805 22.9304 24.5205 22.3004 24.5205 21.5904V8.69043H29.3705V21.4104C29.3705 23.0904 29.0205 24.5504 28.3105 25.7904C27.6005 27.0204 26.6305 27.9704 25.3905 28.6304C24.1505 29.2904 22.7105 29.6104 21.0805 29.6104C20.2805 29.6104 19.5205 29.5204 18.8005 29.3304C18.0805 29.1404 17.4305 28.8604 16.8305 28.4904C16.2305 28.1204 15.6905 27.6704 15.2005 27.1404C14.7305 27.6704 14.1905 28.1104 13.5805 28.4804C12.9705 28.8404 12.3205 29.1204 11.6105 29.3204C10.9005 29.5204 10.1505 29.6104 9.35055 29.6104Z" fill="#083553"/>
<path d="M42.0506 25.4403C42.9106 25.4403 43.7106 25.2803 44.4506 24.9603C45.1806 24.6403 45.8206 24.1803 46.3506 23.5903C46.8806 23.0003 47.2906 22.3103 47.5806 21.5203C47.8706 20.7303 48.0206 19.8703 48.0206 18.9503C48.0206 18.0303 47.8706 17.1803 47.5806 16.3903C47.2906 15.6103 46.8706 14.9203 46.3506 14.3303C45.8206 13.7403 45.1906 13.2903 44.4506 12.9603C43.7206 12.6403 42.9206 12.4803 42.0506 12.4803C41.1806 12.4803 40.3706 12.6403 39.6406 12.9603C38.9206 13.2803 38.2806 13.7403 37.7406 14.3303C37.2006 14.9203 36.7906 15.6103 36.5106 16.4003C36.2306 17.1903 36.0806 18.0403 36.0806 18.9403C36.0806 19.8403 36.2206 20.7203 36.5106 21.5103C36.7906 22.3003 37.2106 22.9903 37.7406 23.5803C38.2806 24.1703 38.9106 24.6203 39.6406 24.9503C40.3606 25.2703 41.1706 25.4303 42.0506 25.4303M42.0506 29.6403C40.4006 29.6403 38.9206 29.3703 37.5806 28.8203C36.2506 28.2703 35.1006 27.5103 34.1406 26.5303C33.1806 25.5503 32.4406 24.4103 31.9206 23.1203C31.4006 21.8303 31.1406 20.4403 31.1406 18.9503C31.1406 17.4603 31.4006 16.0703 31.9206 14.7803C32.4406 13.4903 33.1706 12.3603 34.1206 11.3903C35.0706 10.4203 36.2206 9.67031 37.5606 9.13031C38.9006 8.59031 40.4006 8.32031 42.0406 8.32031C43.6806 8.32031 45.1506 8.59031 46.4906 9.13031C47.8306 9.67031 48.9806 10.4203 49.9306 11.3903C50.8806 12.3603 51.6206 13.5003 52.1506 14.8003C52.6806 16.1003 52.9406 17.4903 52.9406 18.9603C52.9406 20.4303 52.6806 21.8403 52.1506 23.1303C51.6206 24.4203 50.8806 25.5603 49.9306 26.5403C48.9806 27.5203 47.8306 28.2803 46.4906 28.8303C45.1506 29.3803 43.6606 29.6503 42.0406 29.6503L42.0506 29.6403Z" fill="#083553"/>
<path d="M54.9202 29.2604V8.69043H59.8602V17.0104H63.2702C63.8402 17.0104 64.3602 16.8904 64.8402 16.6604C65.3202 16.4204 65.7002 16.0704 65.9702 15.6004C66.2402 15.1304 66.3802 14.5804 66.3802 13.9504V8.69043H71.3202V13.9804C71.3202 15.2904 71.0102 16.4704 70.3802 17.5104C69.7502 18.5504 68.9302 19.3804 67.9102 20.0104L70.1402 24.7104C70.2002 24.8704 70.3002 24.9804 70.4502 25.0604C70.6002 25.1404 70.7602 25.1804 70.9302 25.1804H72.7802V29.2604H69.9302C68.8502 29.2604 67.9802 29.0504 67.3102 28.6404C66.6402 28.2304 66.1302 27.6604 65.7802 26.9404L62.9902 21.1204H59.8502V29.2604H54.9102H54.9202Z" fill="#083553"/>
<path d="M3.45 0C1.54 0 0 1.54 0 3.45C0 5.36 1.54 6.9 3.45 6.9C5.36 6.9 6.9 5.36 6.9 3.45C6.9 1.54 5.36 0 3.45 0Z" fill="#D7263D"/>
</svg>
