<svg width="73" height="30" viewBox="0 0 73 30" fill="none" xmlns="http://www.w3.org/2000/svg">
<path d="M9.34078 29.6104C7.71078 29.6104 6.28078 29.2804 5.03078 28.6304C3.79078 27.9704 2.81078 27.0304 2.11078 25.7904C1.40078 24.5604 1.05078 23.1004 1.05078 21.4104V8.69043H5.90078V21.5904C5.90078 22.3004 6.04078 22.9304 6.31078 23.5004C6.58078 24.0704 6.98078 24.5204 7.50078 24.8504C8.02078 25.1804 8.63078 25.3504 9.34078 25.3504C10.0508 25.3504 10.6508 25.1804 11.1608 24.8504C11.6708 24.5204 12.0708 24.0704 12.3508 23.5004C12.6308 22.9304 12.7808 22.3004 12.7808 21.5904V8.69043H17.6308V21.5904C17.6308 22.3004 17.7708 22.9304 18.0408 23.5004C18.3108 24.0704 18.7108 24.5204 19.2308 24.8504C19.7508 25.1804 20.3608 25.3504 21.0708 25.3504C21.7808 25.3504 22.3908 25.1804 22.9108 24.8504C23.4308 24.5204 23.8308 24.0704 24.1008 23.5004C24.3708 22.9304 24.5108 22.3004 24.5108 21.5904V8.69043H29.3608V21.4104C29.3608 23.0904 29.0108 24.5504 28.3008 25.7904C27.5908 27.0204 26.6208 27.9704 25.3808 28.6304C24.1408 29.2904 22.7008 29.6104 21.0708 29.6104C20.2708 29.6104 19.5108 29.5204 18.7908 29.3304C18.0708 29.1404 17.4208 28.8604 16.8208 28.4904C16.2208 28.1204 15.6808 27.6704 15.1908 27.1404C14.7208 27.6704 14.1808 28.1104 13.5708 28.4804C12.9608 28.8404 12.3108 29.1204 11.6008 29.3204C10.8908 29.5204 10.1408 29.6104 9.34078 29.6104Z" fill="white"/>
<path d="M42.0506 25.4303C42.9106 25.4303 43.7106 25.2703 44.4506 24.9503C45.1806 24.6303 45.8206 24.1703 46.3506 23.5803C46.8806 22.9903 47.2906 22.3003 47.5806 21.5103C47.8706 20.7203 48.0206 19.8603 48.0206 18.9403C48.0206 18.0203 47.8706 17.1703 47.5806 16.3803C47.2906 15.6003 46.8706 14.9103 46.3506 14.3203C45.8206 13.7303 45.1906 13.2803 44.4506 12.9503C43.7206 12.6303 42.9206 12.4703 42.0506 12.4703C41.1806 12.4703 40.3706 12.6303 39.6406 12.9503C38.9206 13.2703 38.2806 13.7303 37.7406 14.3203C37.2006 14.9103 36.7906 15.6003 36.5106 16.3903C36.2306 17.1803 36.0806 18.0303 36.0806 18.9303C36.0806 19.8303 36.2206 20.7103 36.5106 21.5003C36.7906 22.2903 37.2106 22.9803 37.7406 23.5703C38.2806 24.1603 38.9106 24.6103 39.6406 24.9403C40.3606 25.2603 41.1706 25.4203 42.0506 25.4203M42.0506 29.6403C40.4006 29.6403 38.9206 29.3703 37.5806 28.8203C36.2506 28.2703 35.1006 27.5103 34.1406 26.5303C33.1806 25.5503 32.4406 24.4103 31.9206 23.1203C31.4006 21.8303 31.1406 20.4403 31.1406 18.9503C31.1406 17.4603 31.4006 16.0703 31.9206 14.7803C32.4406 13.4903 33.1706 12.3603 34.1206 11.3903C35.0706 10.4203 36.2206 9.67031 37.5606 9.13031C38.9006 8.59031 40.4006 8.32031 42.0406 8.32031C43.6806 8.32031 45.1506 8.59031 46.4906 9.13031C47.8306 9.67031 48.9806 10.4203 49.9306 11.3903C50.8806 12.3603 51.6206 13.5003 52.1506 14.8003C52.6806 16.1003 52.9406 17.4903 52.9406 18.9603C52.9406 20.4303 52.6806 21.8403 52.1506 23.1303C51.6206 24.4203 50.8806 25.5603 49.9306 26.5403C48.9806 27.5203 47.8306 28.2803 46.4906 28.8303C45.1506 29.3803 43.6606 29.6503 42.0406 29.6503L42.0506 29.6403Z" fill="white"/>
<path d="M54.9109 29.2507V8.68066H59.8509V17.0007H63.2609C63.8309 17.0007 64.3509 16.8807 64.8309 16.6507C65.3109 16.4107 65.6909 16.0607 65.9609 15.5907C66.2309 15.1207 66.3709 14.5707 66.3709 13.9407V8.68066H71.3109V13.9707C71.3109 15.2807 71.0009 16.4607 70.3709 17.5007C69.7409 18.5407 68.9209 19.3707 67.9009 20.0007L70.1309 24.7007C70.1909 24.8607 70.2909 24.9707 70.4409 25.0507C70.5909 25.1307 70.7509 25.1707 70.9209 25.1707H72.7709V29.2507H69.9209C68.8409 29.2507 67.9709 29.0407 67.3009 28.6307C66.6309 28.2207 66.1209 27.6507 65.7709 26.9307L62.9809 21.1107H59.8409V29.2507H54.9009H54.9109Z" fill="white"/>
<path d="M3.45098 0C1.54098 0 0.000976562 1.54 0.000976562 3.45C0.000976562 5.36 1.54098 6.9 3.45098 6.9C5.36098 6.9 6.90098 5.36 6.90098 3.45C6.90098 1.54 5.36098 0 3.45098 0Z" fill="#D7263D"/>
</svg>
