<svg width="78" height="79" viewBox="0 0 78 79" fill="none" xmlns="http://www.w3.org/2000/svg">
<g clip-path="url(#clip0_744_8112)">
<path d="M24.8403 79.0005C20.5099 79.0005 16.7108 78.12 13.39 76.3858C10.0957 74.6249 7.49216 72.117 5.63248 68.8087C3.74624 65.527 2.81641 61.6317 2.81641 57.1227V23.1855H15.7013V57.603C15.7013 59.4973 16.0732 61.1781 16.7905 62.6989C17.5078 64.2197 18.5705 65.4203 19.952 66.3007C21.3334 67.1812 22.954 67.6347 24.8403 67.6347C26.7265 67.6347 28.3205 67.1812 29.6754 66.3007C31.0303 65.4203 32.093 64.2197 32.8368 62.6989C33.5807 61.1781 33.9792 59.4973 33.9792 57.603V23.1855H46.8641V57.603C46.8641 59.4973 47.236 61.1781 47.9533 62.6989C48.6706 64.2197 49.7333 65.4203 51.1148 66.3007C52.4962 67.1812 54.1168 67.6347 56.0031 67.6347C57.8893 67.6347 59.5099 67.1812 60.8913 66.3007C62.2728 65.4203 63.3355 64.2197 64.0528 62.6989C64.7701 61.1781 65.142 59.4973 65.142 57.603V23.1855H78.0269V57.1227C78.0269 61.605 77.0971 65.5003 75.2108 68.8087C73.3246 72.0903 70.7476 74.6249 67.4533 76.3858C64.159 78.1467 60.3334 79.0005 56.0031 79.0005C53.8777 79.0005 51.8586 78.7603 49.9458 78.2534C48.033 77.7465 46.3062 76.9995 44.7122 76.0123C43.1182 75.0251 41.6836 73.8245 40.3818 72.4105C39.1332 73.8245 37.6986 74.9984 36.078 75.9856C34.4574 76.9461 32.7306 77.6931 30.8443 78.2267C28.9581 78.7604 26.9656 79.0005 24.8403 79.0005Z" fill="#86D6F7"/>
<path d="M9.16553 0C4.09128 0 0 4.10875 0 9.20466C0 14.3006 4.09128 18.4093 9.16553 18.4093C14.2398 18.4093 18.3311 14.3006 18.3311 9.20466C18.3311 4.10875 14.2398 0 9.16553 0Z" fill="#D7263D"/>
</g>
<defs>
<clipPath id="clip0_744_8112">
<rect width="78" height="79" fill="white"/>
</clipPath>
</defs>
</svg>
